<?xml version="1.0" encoding="utf-8"?>

<!DOCTYPE svg PUBLIC "-//W3C//DTD SVG 1.1//EN" "http://www.w3.org/Graphics/SVG/1.1/DTD/svg11.dtd">
<!-- Uploaded to: SVG Repo, www.svgrepo.com, Generator: SVG Repo Mixer Tools -->
<svg height="800px" width="800px" version="1.1" id="_x32_" xmlns="http://www.w3.org/2000/svg" xmlns:xlink="http://www.w3.org/1999/xlink" 
	 viewBox="0 0 512 512"  xml:space="preserve">
<style type="text/css">
	.st0{fill:#000000;}
</style>
<g>
	<path class="st0" d="M187.135,294.767l-88.813-74.122c-5.921-4.94-13.396-7.651-21.094-7.651c-3.726,0-7.378,0.652-10.838,1.867
		V90.422c0-9.076-3.7-17.338-9.662-23.292c-5.937-5.945-14.2-9.654-23.267-9.654h-0.515c-9.067,0-17.338,3.709-23.284,9.654
		C3.708,73.084,0,81.346,0,90.422v163.973c0.008,23.871,10.032,46.792,27.515,62.979l73.599,71.757l0.056,0.056
		c2.775,2.559,4.392,6.243,4.392,10.024v103.713h117.89V374.802c0.016-0.796,0.032-1.593,0.032-2.389
		C223.484,342.347,210.225,314.027,187.135,294.767z M212.937,374.673v0.081v117.655h-96.858v-93.198
		c-0.008-6.694-2.792-13.089-7.675-17.651v-0.008L34.788,309.78l-0.04-0.032c-15.375-14.176-24.233-34.395-24.224-55.353V90.422
		c0-6.196,2.502-11.77,6.572-15.849c4.08-4.08,9.655-6.582,15.85-6.582h0.016h0.25h0.225c6.204,0,11.778,2.502,15.866,6.582
		c4.063,4.079,6.565,9.654,6.565,15.849v136.86l-0.024,0.032l-0.805,1.038l-0.306,0.563l0.024,0.016
		c-3.137,4.658-4.868,10.266-4.868,15.826c0,7.836,3.275,15.383,8.987,20.716l64.122,59.963l3.597-3.846l-64.13-59.955
		c-4.65-4.352-7.313-10.507-7.313-16.879c0-5.069,1.714-10.041,4.795-14.016l4.248-3.049c3.79-2.712,8.336-4.184,13.034-4.184
		c5.222,0,10.33,1.858,14.345,5.213l88.837,74.122c20.692,17.273,32.552,42.608,32.552,69.568
		C212.961,373.161,212.953,373.917,212.937,374.673z"/>
	<path class="st0" d="M502.338,67.13c-5.938-5.945-14.201-9.654-23.276-9.654h-0.515c-9.067,0-17.33,3.709-23.275,9.654
		c-5.954,5.954-9.655,14.216-9.655,23.292V214.86c-3.459-1.215-7.112-1.867-10.83-1.867c-7.707,0-15.189,2.711-21.103,7.651
		l-88.82,74.122c-23.083,19.26-36.349,47.58-36.342,77.646c0,0.796,0.016,1.593,0.032,2.389v128.123h117.889V399.212
		c-0.008-3.782,1.601-7.466,4.385-10.024l0.065-0.056l73.598-71.757C501.976,301.187,512,278.266,512,254.395V90.422
		C512.008,81.346,508.299,73.084,502.338,67.13z M501.484,254.395c0.008,20.958-8.85,41.177-24.224,55.353l-0.04,0.032
		l-73.623,71.773l0.008,0.008c-4.892,4.562-7.676,10.957-7.676,17.651v93.198h-96.858V374.754v-0.081
		c-0.016-0.756-0.032-1.512-0.032-2.26c0.008-26.96,11.867-52.296,32.567-69.568l88.814-74.122c4.023-3.355,9.14-5.213,14.368-5.213
		c4.683,0,9.229,1.472,13.018,4.184l4.256,3.049c3.081,3.974,4.796,8.946,4.796,14.016c0,6.372-2.663,12.526-7.321,16.879
		l-64.13,59.955l3.596,3.846l64.122-59.963c5.721-5.334,8.995-12.88,8.995-20.716c0-5.56-1.722-11.168-4.867-15.826l0.032-0.016
		l-0.314-0.563l-0.812-1.038l-0.032-0.032V90.422c0.008-6.196,2.51-11.77,6.589-15.849c4.079-4.08,9.655-6.582,15.841-6.582h0.226
		h0.265h0.016c6.186,0,11.762,2.502,15.841,6.582c4.079,4.079,6.573,9.654,6.581,15.849V254.395z"/>
	<path class="st0" d="M368.164,73.358L256.004,9.075L143.843,73.358v127.801l2.976,1.705l109.185,62.569l112.16-64.274V73.358z
		 M252.721,249.914l-97.051-55.61V83.961l97.051,55.618V249.914z M159.008,78.297l96.996-55.578l96.986,55.578l-96.986,55.594
		L159.008,78.297z M356.33,194.304l-97.036,55.61V139.579l97.036-55.618V194.304z"/>
</g>
</svg>